<svg xmlns="http://www.w3.org/2000/svg" viewBox="0 0 512 408" width="50" height="50"><path fill="#7952B3" d="M106.7 0C47.8 0 0 47.8 0 106.7v194.7C0 360.2 47.8 408 106.7 408h298.7c58.8 0 106.7-47.8 106.7-106.7V106.7C512 47.8 464.2 0 405.3 0H106.7z"/><path fill="#fff" d="M161.3 89h120c30 0 54.5 5 70 21.3 11.5 12.2 17 28.5 17 46.7 0 33-20 55-47.5 62v1c30 5.5 51.2 29 51.2 63 0 22-7.5 39.5-21.5 53-18 17.2-45.5 25-86 25h-103V89zm50.7 115h58.5c30.5 0 48.5-14 48.5-39 0-27.5-20.5-38-51-38h-56v77zm0 120h64c35 0 55.5-15 55.5-43.5 0-29-21.5-43-58-43H212v86.5z"/></svg>