<svg xmlns="http://www.w3.org/2000/svg" viewBox="0 0 400 400" width="50" height="50"><path fill="#E535AB" d="M57.5 302.6l-14.4-8.4L188.2 53.5l14.4 8.4z"/><path fill="#E535AB" d="M39.4 272.2h321.3v16.7H39.4z"/><path fill="#E535AB" d="M206.3 374.1L68.8 294.6l8.4-14.4 137.5 79.5zM334 138.2L196.5 58.7l8.4-14.4L342.4 124z"/><path fill="#E535AB" d="M68.8 105.4l8.3-14.4 137.5 79.5-8.3 14.4z"/><path fill="#E535AB" d="M197.6 346.5l-14.4-8.4L328.4 97.4l14.4 8.4zM59 284.3h16.7V131.7H59z"/><path fill="#E535AB" d="M324.3 284.3H341V131.7h-16.7z"/><path fill="#E535AB" d="M195 361l-8.4-14.4 137.5-79.5 8.4 14.4z"/><path fill="#E535AB" d="M200 395.8c-17.6 0-31.9-14.3-31.9-31.9S182.4 332 200 332s31.9 14.3 31.9 31.9c0 17.6-14.3 31.9-31.9 31.9zM71.2 321.8c-17.6 0-31.9-14.3-31.9-31.9 0-17.6 14.3-31.9 31.9-31.9 17.6 0 31.9 14.3 31.9 31.9 0 17.6-14.3 31.9-31.9 31.9zM328.8 321.8c-17.6 0-31.9-14.3-31.9-31.9 0-17.6 14.3-31.9 31.9-31.9 17.6 0 31.9 14.3 31.9 31.9 0 17.6-14.3 31.9-31.9 31.9zM71.2 142c-17.6 0-31.9-14.3-31.9-31.9S53.6 78.2 71.2 78.2s31.9 14.3 31.9 31.9S88.8 142 71.2 142zM328.8 142c-17.6 0-31.9-14.3-31.9-31.9s14.3-31.9 31.9-31.9c17.6 0 31.9 14.3 31.9 31.9S346.4 142 328.8 142zM200 68c-17.6 0-31.9-14.3-31.9-31.9S182.4 4.2 200 4.2s31.9 14.3 31.9 31.9S217.6 68 200 68z"/></svg>