<svg xmlns="http://www.w3.org/2000/svg" viewBox="0 0 36 32" width="50" height="50"><path fill="#007FFF" d="M30 11.2V1.6L21 6.4v3.2l5.4-2.9v9.7L30 18.3V11.2z"/><path fill="#007FFF" d="M21 12.8v3.2l5.4-2.9 3.6 1.9v-3.2l-3.6-1.9L21 12.8z"/><path fill="#007FFF" d="M14.4 6.4L5.4 1.6v16.7l9 4.8v-3.2l-5.4-2.9V5.3L14.4 8V6.4z"/><path fill="#007FFF" d="M14.4 6.4v3.2l5.4 2.9v6.4l-5.4-2.9v3.2l5.4 2.9 9-4.8V8L14.4 6.4z"/><path fill="#007FFF" d="M14.4 22.4L5.4 27.2v3.2l9-4.8v-3.2z"/><path fill="#007FFF" d="M14.4 22.4v3.2l9 4.8V27.2l-9-4.8z"/></svg>