<svg xmlns="http://www.w3.org/2000/svg" viewBox="0 0 50 50" width="50" height="50"><path d="M35.2 1.5c-2.6 0-4.8.5-6.7 1.3C26.8 1.8 24.8 1 22.5 1c-2 0-4.2.5-6.2 1.5C14.7 1.5 12.7 1 10.8 1 5.3 1 1.5 4.8 1.5 10.5c0 3.3 1.2 7.2 3.3 11.5 2.5 5 5.8 9.8 8.5 12.5 1.5 1.5 3 2.5 4.7 2.5.8 0 1.5-.2 2.2-.5.5.2 1 .3 1.5.3 1.5 0 2.8-.8 3.8-2l.5-.5c1 .5 2 .8 3 .8 2 0 3.5-1 4.5-2.5l.5-.8c1.5.5 3 .8 4.2.8 3.2 0 5.5-2 6.5-5.5 1.2-4.2 1.5-9.8 1-14.2-.5-4.5-2-8-4.5-10.5-2-2-4.5-3-7-3z" fill="#336791"/><path d="M35.2 3.5c2 0 4 .8 5.5 2.3 2 2 3.3 5 3.8 9 .5 4.2.2 9.5-1 13.2-.8 3-2.5 4-4.5 4-1 0-2.2-.3-3.5-.8l-1.5-.8-.8 1.3c-.8 1.2-1.8 2-3 2-.8 0-1.5-.2-2.3-.5l-1.5-.8-1 1.3c-.8 1-1.5 1.5-2.5 1.5-.3 0-.5 0-.8-.2l-1-.3-.8.5c-.5.3-1 .3-1.5.3-1 0-2-.5-3-2-2.5-2.5-5.5-7-8-11.8-2-3.8-3-7.5-3-10.5 0-4.5 3-7.5 7.3-7.5 1.5 0 3.2.5 5 1.5l1.2.8.8-.5c1.5-.8 3.2-1.2 5-1.2 1.8 0 3.5.5 5 1.3l1 .5.8-.5c1.5-.8 3.5-1.2 5.5-1.2z" fill="#fff"/><path d="M25 12c-3 0-5 2.5-5 6s2 7 5 7 5-3.5 5-7-2-6-5-6zm-12 1c-2.5 0-4.5 2-4.5 5s2 6 4.5 6 4.5-2.5 4.5-5.5-2-5.5-4.5-5.5z" fill="#336791"/><circle cx="24" cy="17" r="1.5" fill="#fff"/><circle cx="13.5" cy="17" r="1.5" fill="#fff"/><path d="M18 28c0 0 2-1 4.5-1s4.5 1 4.5 1" stroke="#336791" stroke-width="1" fill="none" stroke-linecap="round"/></svg>