<svg xmlns="http://www.w3.org/2000/svg" viewBox="0 0 64 64" width="50" height="50"><path d="M44.5 1.2l-.6 7.3c0 .3.3.5.6.3l2.2-1.7 2 1.6c.2.2.5 0 .6-.3l-.5-7.5 2.9-.2c2.1-.1 3.8 1.5 3.8 3.6v50.5c0 2-1.6 3.7-3.7 3.8L18 60c-2-.1-3.5-1.8-3.5-3.8V6.5c.1-2 1.7-3.7 3.7-3.8l26.3-1.5z" fill="#FF4785"/><path d="M34.3 23.8c0 1 7 .6 8 0 0-6.7-3.6-10.3-10.2-10.3-6.6 0-10.3 3.7-10.3 9.2 0 9.6 12.8 9.8 12.8 15 0 1.5-.7 2.4-2.4 2.4-2.2 0-3-1.1-2.9-5-0-.8-8.2 0-8.5 0-.6 8.5 4.7 11 11.5 11 6.6 0 10.8-3.5 10.8-9.8 0-10.3-13-10-13-15.2 0-2 1.5-2.3 2.5-2.3 1.1 0 2.6.2 2.6 5z" fill="#fff"/></svg>