<svg xmlns="http://www.w3.org/2000/svg" viewBox="0 0 109 113" width="50" height="50"><path d="M63.7 110.3c-2.5 3.2-7.8 1.4-7.8-2.6V71.1h45.6c5.3 0 8.2 6.2 4.8 10.2L63.7 110.3z" fill="url(#a)"/><path d="M63.7 110.3c-2.5 3.2-7.8 1.4-7.8-2.6V71.1h45.6c5.3 0 8.2 6.2 4.8 10.2L63.7 110.3z" fill="url(#b)" fill-opacity=".2"/><path d="M45.3 2.7C47.8-.5 53.1 1.3 53.1 5.3v36.6H7.5c-5.3 0-8.2-6.2-4.8-10.2L45.3 2.7z" fill="#3ECF8E"/><defs><linearGradient id="a" x1="53.97" y1="82.61" x2="94.17" y2="101.74" gradientUnits="userSpaceOnUse"><stop stop-color="#249361"/><stop offset="1" stop-color="#3ECF8E"/></linearGradient><linearGradient id="b" x1="36.16" y1="64.01" x2="54.48" y2="88.95" gradientUnits="userSpaceOnUse"><stop/><stop offset="1" stop-opacity="0"/></linearGradient></defs></svg>