<svg xmlns="http://www.w3.org/2000/svg" viewBox="0 0 98.1 118" width="50" height="50"><path d="M91.8 15.6C80.9-.1 59.2-4.7 43.6 5.2L16.1 22.8C8.6 27.5 3.4 35.2 1.9 43.9c-1.3 7.3-.2 14.8 3.3 21.3-2.4 3.6-4 7.6-4.7 11.8-1.6 8.9.5 18.1 5.7 25.4 11 15.7 32.6 20.3 48.2 10.4l27.5-17.6c7.5-4.7 12.7-12.4 14.2-21.1 1.3-7.3.2-14.8-3.3-21.3 2.4-3.6 4-7.6 4.7-11.8 1.7-9-.4-18.2-5.7-25.4" fill="#ff3e00"/><path d="M40.9 103.9a27.3 27.3 0 0 1-16.2-2.4 21.2 21.2 0 0 1-9.5-11.7c-2-6.2-1.3-12.9 1.9-18.4l.8-1.3 1.5-2.5 1.7 2.2.9 1.1c3.3 3.8 7.4 6.9 12 9l1.1.5-.1 1.2c-.1 2.1.5 4.2 1.8 5.9a8 8 0 0 0 6.1 3.4c1.1.1 2.3-.1 3.4-.5L72.7 73c1.1-.7 2-1.8 2.4-3.1.5-1.5.4-3.1-.4-4.5a8 8 0 0 0-6.1-3.4c-1.1-.1-2.3.1-3.4.5l-10.5 6.7a24.6 24.6 0 0 1-10.1 1.4 23.8 23.8 0 0 1-18.2-10.1 20.9 20.9 0 0 1-1.2-22.7c1.3-2.4 3.2-4.4 5.6-5.8l27.5-17.6a24.6 24.6 0 0 1 10.1-1.4c6.2.5 12 3.7 16.2 8.8a21.2 21.2 0 0 1 3.2 22.5l-.8 1.3-1.5 2.5-1.7-2.2-.9-1.1a36 36 0 0 0-12-9l-1.1-.5.1-1.2c.1-2.1-.5-4.2-1.8-5.9a8 8 0 0 0-6.1-3.4c-1.1-.1-2.3.1-3.4.5L25.4 45c-1.1.7-2 1.8-2.4 3.1-.5 1.5-.4 3.1.4 4.5a8 8 0 0 0 6.1 3.4c1.1.1 2.3-.1 3.4-.5l10.5-6.7c3.1-2 6.6-3.1 10.1-1.4 6.2-.5 12 3.7 16.2 8.8a20.7 20.7 0 0 1-1.9 26.1c-1.3 2.4-3.2 4.4-5.6 5.8L34.7 105.7c-3.1 2-6.6 3.1-10.1 1.4" fill="#fff"/></svg>